# xmcd CD database file
#
# Track frame offsets:
#	150
#	20149
#	48039
#	70744
#	77024
#	79536
#	106700
#	128111
#	150087
#	180017
#	203328
#	226948
#	252920
#	257804
#	271939
#	291475
#	304749
#
# Disc length: 4314 seconds
#
# Revision: 0
# Processed by: cddbd v1.5.2PL0 Copyright (c) Steve Scherf et al.
# Submitted via: CDex 1.51
#
DISCID=c910d811
DTITLE=Gerry Mulligan Sextet&Quartet With Bob Brookmeyer and Zoot Sims - Rare And Unissued 1955-56
DYEAR=1955
DGENRE=Jazz
TTITLE0=Apple Core (incomplete)
TTITLE1=Moonlight In Vermont
TTITLE2=Nights At The Turntable
TTITLE3=Broadway
TTITLE4=Utter Chaos (theme)
TTITLE5=The Red Door
TTITLE6=Soft Shoe
TTITLE7=Makin' Whoopee
TTITLE8=Bernie' Tune
TTITLE9=intro into Bernie's Tune
TTITLE10=Walking Shoes
TTITLE11=Ontet
TTITLE12=Line For Lyons (incomplete)
TTITLE13=My Funny Valentine
TTITLE14=Five Brothers
TTITLE15=Line For Lyons
TTITLE16=Utter Chaos into Bernie's Tune
EXTD=YEAR: 1955
EXTT0=
EXTT1=
EXTT2=
EXTT3=
EXTT4=
EXTT5=
EXTT6=
EXTT7=
EXTT8=
EXTT9=
EXTT10=
EXTT11=
EXTT12=
EXTT13=
EXTT14=
EXTT15=
EXTT16=
PLAYORDER=
